# xmcd CD database file
#
# Track frame offsets:
#	300
#	20673
#	40492
#	65033
#	77998
#	101026
#	105063
#	125444
#	147785
#
# Disc length: 2212 seconds
#
# Revision: 0
# Processed by: cddbd v1.5.2PL0 Copyright (c) Steve Scherf et al.
# Submitted via: CDex 1.70beta2
#
DISCID=7a08a009
DTITLE=kota-rock - 風の音塊　～ボス編～
DYEAR=2008
DGENRE=東方アレンジ
TTITLE0=Fragment of memory
TTITLE1=Dark side of Light
TTITLE2=Water imp
TTITLE3=Braggart's rhythm
TTITLE4=Sin
TTITLE5=Introductory chapter
TTITLE6=Agency of Providence
TTITLE7=Dimension interstice
TTITLE8=Native Face
EXTD=YEAR: 2008
EXTT0=
EXTT1=
EXTT2=
EXTT3=
EXTT4=
EXTT5=
EXTT6=
EXTT7=
EXTT8=
PLAYORDER=
